{"title":"Epica - Live on Pinkpop 2014","uid":10324495,"size":1051634617,"categoryP":"video","categoryS":"movie_clips","magnet":"?xt=urn:btih:d2012a04c58e91a5e47178372ac15f02f176eb4e&amp;dn=Epica+-+Live+on+Pinkpop+2014&amp;tr=udp%3A%2F%2Ftracker.openbittorrent.com%3A80&amp;tr=udp%3A%2F%2Fopen.demonii.com%3A1337&amp;tr=udp%3A%2F%2Ftracker.coppersurfer.tk%3A6969&amp;tr=udp%3A%2F%2Fexodus.desync.com%3A6969","seeders":1,"leechers":1,"uploader":"Kilowatt36","files":1,"time":1402344802,"description":"Format                         : MPEG-4\nDuration                       : 51mn 6s\n\n\nVideo\n\nFormat/Info                    : Advanced Video Codec\nBit rate                       : 2 410 Kbps\nWidth                          : 1 024 pixels\nHeight                         : 576 pixels\nDisplay aspect ratio           : 16:9\nFrame rate                     : 25.000 fps\nStream size                    : 881 MiB\n\nAudio\n\nFormat                         : AAC\nFormat/Info                    : Advanced Audio Codec\nBit rate mode                  : Constant\nBit rate                       : 320 Kbps\nChannel(s)                     : 2 channels\nSampling rate                  : 48.0 KHz\nCompression mode               : Lossy\nStream size                    : 119 MiB","torrent":{"xt":"urn:btih:d2012a04c58e91a5e47178372ac15f02f176eb4e","amp;dn":"Epica+-+Live+on+Pinkpop+2014","amp;tr":["udp%3A%2F%2Ftracker.openbittorrent.com%3A80","udp%3A%2F%2Fopen.demonii.com%3A1337","udp%3A%2F%2Ftracker.coppersurfer.tk%3A6969","udp%3A%2F%2Fexodus.desync.com%3A6969"],"infoHash":"d2012a04c58e91a5e47178372ac15f02f176eb4e","infoHashBuffer":{"type":"Buffer","data":[210,1,42,4,197,142,145,165,228,113,120,55,42,193,95,2,241,118,235,78]},"announce":[],"urlList":[]}}